<svg xmlns="http://www.w3.org/2000/svg" xmlns:xlink="http://www.w3.org/1999/xlink" width="500" zoomAndPan="magnify" viewBox="0 0 375 374.999991" height="500" preserveAspectRatio="xMidYMid meet" version="1.0"><defs><g/><clipPath id="50006a1b45"><path d="M 60.757812 136.242188 L 163.507812 136.242188 L 163.507812 238.992188 L 60.757812 238.992188 Z M 60.757812 136.242188 " clip-rule="nonzero"/></clipPath><clipPath id="86eca972f5"><path d="M 237.675781 114.902344 L 337.425781 114.902344 L 337.425781 214.652344 L 237.675781 214.652344 Z M 237.675781 114.902344 " clip-rule="nonzero"/></clipPath><clipPath id="92e0a54a75"><path d="M 66 127 L 167 127 L 167 227 L 66 227 Z M 66 127 " clip-rule="nonzero"/></clipPath><clipPath id="3e25c5e6f7"><path d="M 51.21875 191.742188 L 135.921875 100.496094 L 199.132812 159.171875 L 114.433594 250.421875 Z M 51.21875 191.742188 " clip-rule="nonzero"/></clipPath><clipPath id="bf0aaf8987"><path d="M 51.21875 191.742188 L 135.921875 100.496094 L 199.132812 159.171875 L 114.433594 250.421875 Z M 51.21875 191.742188 " clip-rule="nonzero"/></clipPath><clipPath id="710295b4a3"><path d="M 51.21875 191.742188 L 135.921875 100.496094 L 199.132812 159.171875 L 114.433594 250.421875 Z M 51.21875 191.742188 " clip-rule="nonzero"/></clipPath><clipPath id="08f678db07"><path d="M 85.492188 165 L 131 165 L 131 208.316406 L 85.492188 208.316406 Z M 85.492188 165 " clip-rule="nonzero"/></clipPath><clipPath id="f32868ebeb"><path d="M 85.492188 180 L 132 180 L 132 208.316406 L 85.492188 208.316406 Z M 85.492188 180 " clip-rule="nonzero"/></clipPath><clipPath id="ce473220f8"><path d="M 86 165 L 138.742188 165 L 138.742188 208.316406 L 86 208.316406 Z M 86 165 " clip-rule="nonzero"/></clipPath><clipPath id="357446685f"><path d="M 89 165 L 137 165 L 137 208.316406 L 89 208.316406 Z M 89 165 " clip-rule="nonzero"/></clipPath></defs><g clip-path="url(#50006a1b45)"><path fill="#ffffff" d="M 132.117188 234.941406 C 138.242188 232.347656 143.710938 228.671875 148.421875 223.910156 C 153.136719 219.152344 156.859375 213.683594 159.453125 207.601562 C 162.140625 201.289062 163.507812 194.546875 163.507812 187.617188 L 159.265625 187.617188 C 159.265625 193.980469 158.039062 200.15625 155.539062 205.953125 C 153.183594 211.5625 149.789062 216.605469 145.453125 220.941406 C 141.117188 225.277344 136.074219 228.671875 130.464844 231.027344 C 124.667969 233.480469 118.492188 234.75 112.132812 234.75 C 105.769531 234.75 99.59375 233.527344 93.796875 231.027344 C 88.1875 228.671875 83.144531 225.277344 78.808594 220.941406 C 74.472656 216.605469 71.078125 211.5625 68.722656 205.953125 C 66.269531 200.15625 65 193.980469 65 187.617188 C 65 181.257812 66.222656 175.082031 68.722656 169.285156 C 71.078125 163.675781 74.472656 158.632812 78.808594 154.296875 C 83.144531 149.960938 88.1875 146.566406 93.796875 144.210938 C 99.59375 141.757812 105.769531 140.484375 112.132812 140.484375 C 112.132812 140.484375 112.179688 140.484375 112.179688 140.484375 L 112.179688 136.242188 C 112.179688 136.242188 112.132812 136.242188 112.132812 136.242188 C 105.203125 136.242188 98.460938 137.609375 92.148438 140.296875 C 86.019531 142.890625 80.550781 146.566406 75.839844 151.328125 C 71.125 156.039062 67.402344 161.554688 64.808594 167.632812 C 62.121094 173.949219 60.757812 180.691406 60.757812 187.617188 C 60.757812 194.546875 62.121094 201.289062 64.808594 207.601562 C 67.402344 213.730469 71.078125 219.199219 75.839844 223.910156 C 80.550781 228.625 86.066406 232.347656 92.148438 234.941406 C 98.460938 237.628906 105.203125 238.992188 112.132812 238.992188 C 119.058594 238.992188 125.753906 237.628906 132.117188 234.941406 Z M 132.117188 234.941406 " fill-opacity="1" fill-rule="nonzero"/></g><g clip-path="url(#86eca972f5)"><path fill="#7ed957" d="M 307.847656 214.722656 L 337.496094 214.722656 C 337.496094 201.25 334.898438 188.171875 329.609375 175.894531 C 324.617188 164.015625 317.429688 153.335938 308.246094 144.152344 C 299.0625 134.96875 288.382812 127.78125 276.503906 122.789062 C 264.226562 117.5 251.148438 114.902344 237.675781 114.902344 L 237.675781 144.550781 C 256.441406 144.550781 274.109375 151.835938 287.285156 165.113281 C 300.5625 178.289062 307.847656 195.957031 307.847656 214.722656 Z M 307.847656 214.722656 " fill-opacity="1" fill-rule="nonzero"/></g><g clip-path="url(#92e0a54a75)"><g clip-path="url(#3e25c5e6f7)"><g clip-path="url(#bf0aaf8987)"><g clip-path="url(#710295b4a3)"><path fill="#ffffff" d="M 166.296875 128.691406 L 165.261719 127.730469 L 139.03125 155.988281 C 131.160156 148.945312 121.042969 145.253906 110.464844 145.636719 C 99.609375 146.027344 89.636719 150.617188 82.269531 158.554688 C 75.894531 165.421875 72.167969 174.085938 71.59375 183.292969 L 67.039062 182.972656 L 67.019531 183.351562 C 66.058594 196.90625 71.171875 210.066406 81.0625 219.441406 L 81.3125 219.675781 L 84.714844 216.078125 C 92.628906 223.289062 102.851562 227.015625 113.535156 226.664062 C 124.390625 226.269531 134.359375 221.679688 141.726562 213.742188 C 142.785156 212.605469 143.738281 211.4375 144.6875 210.199219 L 148.855469 213.074219 L 149.050781 212.792969 C 156.777344 201.609375 159.097656 187.664062 155.429688 174.589844 L 155.347656 174.246094 L 151.128906 175.433594 C 149.210938 168.417969 145.457031 162.085938 140.101562 156.914062 Z M 67.6875 183.707031 L 71.550781 183.980469 C 71.492188 185.1875 71.472656 186.425781 71.550781 187.625 C 71.894531 198.34375 76.402344 208.292969 84.214844 215.613281 L 81.308594 218.675781 C 71.84375 209.558594 66.847656 196.84375 67.6875 183.707031 Z M 72.929688 184.070312 L 77.585938 184.417969 C 76.976562 194.585938 80.796875 204.421875 88.117188 211.484375 L 85.175781 214.582031 C 77.644531 207.527344 73.289062 197.917969 72.890625 187.542969 C 72.84375 186.375 72.835938 185.242188 72.929688 184.070312 Z M 154.867188 175.125 C 158.347656 187.828125 156.109375 201.253906 148.683594 212.117188 L 145.113281 209.667969 C 150.269531 202.394531 152.863281 193.738281 152.550781 184.703125 C 152.4375 181.75 152.019531 178.910156 151.328125 176.148438 Z M 140.519531 206.460938 C 146.214844 198.035156 147.984375 187.617188 145.300781 177.773438 L 149.933594 176.507812 C 150.585938 179.167969 151 181.9375 151.140625 184.71875 C 151.476562 193.441406 148.941406 201.824219 143.980469 208.8125 Z M 149.769531 175.824219 L 144.460938 177.324219 L 144.542969 177.664062 C 147.292969 187.507812 145.558594 197.957031 139.757812 206.351562 L 139.5625 206.632812 L 143.554688 209.414062 C 142.671875 210.578125 141.753906 211.714844 140.761719 212.78125 C 133.660156 220.433594 123.992188 224.839844 113.546875 225.21875 C 103.242188 225.589844 93.371094 221.992188 85.742188 215.042969 L 89.148438 211.445312 L 88.898438 211.214844 C 81.507812 204.15625 77.621094 194.253906 78.328125 184.046875 L 78.347656 183.667969 L 73.003906 183.273438 C 73.558594 174.449219 77.125 166.101562 83.269531 159.480469 C 90.371094 151.828125 100.042969 147.421875 110.484375 147.042969 C 120.925781 146.667969 130.90625 150.367188 138.574219 157.484375 C 144.03125 162.550781 147.851562 168.878906 149.769531 175.824219 Z M 149.769531 175.824219 " fill-opacity="1" fill-rule="nonzero"/></g></g></g></g><g clip-path="url(#08f678db07)"><path fill="#ffffff" d="M 110.046875 207.425781 L 110.914062 205.632812 C 110.953125 205.632812 110.976562 205.632812 111.015625 205.632812 C 111.632812 205.570312 112.273438 205.675781 112.890625 205.652344 C 113.550781 205.632812 114.375 205.550781 114.910156 205.179688 C 115.136719 205.035156 115.632812 204.707031 115.671875 204.417969 C 115.714844 204.066406 115.21875 203.550781 114.992188 203.324219 C 114.765625 203.078125 114.519531 202.871094 114.25 202.667969 C 114.25 200.378906 114.210938 197.722656 113.960938 195.210938 C 114.148438 195.167969 114.25 195.148438 114.25 195.148438 C 114.066406 192.488281 112.5 187.421875 110.933594 185.28125 C 110.6875 184.949219 110.417969 184.601562 110.109375 184.332031 C 109.140625 183.46875 108.234375 183.117188 107.039062 182.664062 C 106.382812 182.417969 105.703125 182.148438 105 181.921875 C 105.0625 181.902344 105.105469 181.878906 105.167969 181.878906 C 106.113281 181.550781 106.957031 180.914062 107.578125 180.109375 C 108.171875 179.347656 108.769531 178.503906 109.082031 177.679688 C 109.246094 177.246094 109.390625 176.792969 109.535156 176.339844 C 109.863281 176.113281 110.128906 175.78125 110.398438 175.453125 C 110.953125 174.753906 111.265625 173.867188 111.347656 172.960938 C 111.71875 168.097656 104.796875 164.863281 102.054688 165.339844 C 101.953125 165.359375 101.847656 165.378906 101.746094 165.378906 C 101.5 165.339844 101.292969 165.214844 101.046875 165.214844 C 99.726562 165.214844 98.472656 165.9375 97.480469 166.761719 C 93.566406 170.078125 95.257812 175.742188 95.710938 176.957031 C 96.390625 178.730469 96.988281 179.46875 97.359375 179.800781 L 97.339844 180.355469 L 97.316406 180.789062 C 97.113281 180.808594 96.925781 180.832031 96.71875 180.871094 C 92.414062 181.59375 88.914062 183.550781 88.460938 184.375 C 87.882812 185.484375 87.511719 186.496094 87.265625 187.464844 C 85.824219 191.625 85.511719 195.003906 85.511719 195.003906 C 85.964844 195.210938 86.5625 195.394531 87.242188 195.558594 C 87.183594 197.0625 87.222656 198.546875 87.367188 200.050781 C 87.386719 200.234375 87.386719 200.421875 87.410156 200.605469 C 87.429688 200.976562 87.492188 201.328125 87.59375 201.675781 C 87.367188 203.820312 87.078125 205.960938 87.078125 208.085938 L 95.957031 208.105469 L 110.027344 208.144531 L 130.214844 206.210938 C 130.609375 206.1875 130.917969 205.859375 130.917969 205.46875 L 130.917969 205.078125 Z M 110.75 205.632812 C 110.75 205.632812 110.769531 205.632812 110.769531 205.632812 C 110.769531 205.632812 110.75 205.632812 110.75 205.632812 Z M 110.152344 205.652344 C 110.171875 205.652344 110.191406 205.652344 110.214844 205.652344 C 110.171875 205.652344 110.152344 205.652344 110.152344 205.652344 Z M 110.378906 205.652344 C 110.398438 205.652344 110.417969 205.652344 110.441406 205.652344 C 110.398438 205.652344 110.398438 205.652344 110.378906 205.652344 Z M 110.5625 205.652344 C 110.585938 205.652344 110.585938 205.652344 110.605469 205.652344 C 110.605469 205.652344 110.585938 205.652344 110.5625 205.652344 Z M 109.945312 205.675781 C 109.925781 205.675781 109.902344 205.675781 109.882812 205.675781 C 109.902344 205.675781 109.925781 205.675781 109.945312 205.675781 Z M 109.636719 205.675781 C 109.617188 205.675781 109.617188 205.675781 109.617188 205.675781 C 109.617188 205.675781 109.636719 205.675781 109.636719 205.675781 Z M 109.636719 205.675781 " fill-opacity="1" fill-rule="nonzero"/></g><g clip-path="url(#f32868ebeb)"><path fill="#7ed957" d="M 110.914062 185.28125 C 112.480469 187.441406 114.042969 192.488281 114.230469 195.148438 C 114.230469 195.148438 114.128906 195.167969 113.941406 195.210938 C 113.117188 195.375 110.605469 195.847656 108.976562 196.15625 C 108.792969 197.90625 108.460938 199.679688 108.171875 201.390625 C 107.636719 201.492188 107.101562 201.617188 106.585938 201.699219 C 105.621094 201.84375 97.277344 199.039062 94.929688 198.957031 C 94.867188 198.957031 94.824219 198.957031 94.761719 198.917969 C 94.722656 198.875 94.703125 198.835938 94.703125 198.773438 C 94.496094 198.074219 94.371094 197.332031 94.308594 196.589844 C 93.363281 196.507812 89.777344 196.199219 87.222656 195.578125 C 86.542969 195.414062 85.945312 195.230469 85.492188 195.023438 C 85.492188 195.023438 85.800781 191.644531 87.242188 187.484375 C 87.46875 186.515625 87.863281 185.484375 88.4375 184.394531 C 88.871094 183.570312 92.375 181.613281 96.699219 180.890625 C 96.90625 180.851562 97.089844 180.832031 97.296875 180.808594 L 97.195312 182.847656 C 98.222656 183.878906 99.832031 184.992188 101.480469 185.382812 C 104.917969 186.207031 104.363281 182.582031 104.363281 182.582031 L 104.464844 182.066406 C 104.628906 182.023438 104.816406 181.984375 104.980469 181.941406 C 105.660156 182.167969 106.339844 182.417969 107.019531 182.683594 C 108.195312 183.136719 109.101562 183.488281 110.089844 184.351562 C 110.417969 184.601562 110.667969 184.949219 110.914062 185.28125 Z M 104.835938 205.28125 C 104.320312 205.304688 103.578125 205.40625 103.105469 205.488281 C 101.375 205.796875 100.367188 205.859375 100.058594 205.878906 C 96.039062 206.230469 92.3125 205.570312 91.609375 205.363281 C 90.621094 205.054688 89.757812 204.4375 89.058594 203.675781 C 88.625 203.203125 88.128906 202.644531 87.78125 202.109375 C 87.695312 201.988281 87.636719 201.84375 87.574219 201.699219 C 87.347656 203.839844 87.058594 205.984375 87.058594 208.105469 L 95.9375 208.125 C 95.957031 208.125 95.976562 208.105469 96.019531 208.105469 L 95.710938 208.105469 C 95.320312 208.105469 95.011719 207.796875 95.011719 207.40625 L 95.011719 206.972656 Z M 128.113281 192.015625 C 125.601562 192.015625 122.738281 194.015625 121.707031 196.464844 C 120.679688 198.917969 121.894531 200.914062 124.40625 200.914062 C 126.921875 200.914062 129.785156 198.917969 130.8125 196.464844 C 131.84375 194.015625 130.628906 192.015625 128.113281 192.015625 Z M 128.113281 192.015625 " fill-opacity="1" fill-rule="nonzero"/></g><g clip-path="url(#ce473220f8)"><path fill="#7ed957" d="M 95.710938 176.957031 C 95.257812 175.742188 93.566406 170.078125 97.480469 166.761719 C 98.449219 165.9375 99.707031 165.214844 101.046875 165.214844 C 101.292969 165.214844 101.5 165.339844 101.746094 165.378906 C 101.847656 165.402344 101.953125 165.359375 102.054688 165.339844 C 104.796875 164.84375 111.695312 168.097656 111.347656 172.960938 C 111.285156 173.867188 110.976562 174.753906 110.398438 175.453125 C 110.152344 175.78125 109.863281 176.113281 109.535156 176.339844 C 109.554688 176.234375 109.59375 176.152344 109.617188 176.050781 C 109.71875 175.679688 109.820312 175.308594 109.902344 174.917969 C 110.027344 174.136719 109.863281 173.457031 109.222656 173.105469 C 107.472656 172.15625 105.453125 171.929688 103.457031 171.785156 C 102.757812 171.746094 102.054688 171.703125 101.375 171.5 C 100.695312 171.292969 100.097656 170.941406 99.664062 170.386719 C 99.460938 171.953125 99.542969 173.539062 99.109375 175.0625 C 99.070312 175.207031 99.007812 175.371094 98.863281 175.414062 C 98.738281 175.453125 98.613281 175.371094 98.53125 175.269531 C 98.449219 175.164062 98.203125 174.464844 98.140625 174.363281 C 98.140625 174.363281 98.140625 174.363281 98.121094 174.363281 C 97.894531 174.011719 97.585938 173.722656 97.214844 173.621094 C 96.824219 173.515625 96.554688 173.621094 96.410156 173.824219 C 96.082031 174.277344 96.246094 175.226562 96.597656 175.804688 C 96.84375 176.214844 97.152344 176.441406 97.480469 176.667969 C 97.480469 176.667969 97.503906 176.691406 97.503906 176.691406 C 97.542969 176.710938 97.605469 176.75 97.648438 176.792969 C 97.6875 176.8125 97.707031 176.855469 97.730469 176.894531 C 97.8125 177.019531 97.8125 177.183594 97.832031 177.328125 C 97.832031 177.347656 97.832031 177.347656 97.832031 177.371094 C 97.851562 177.429688 97.851562 177.492188 97.851562 177.554688 C 97.875 177.800781 97.894531 178.027344 97.914062 178.277344 C 97.933594 178.542969 97.957031 178.8125 97.957031 179.078125 C 97.957031 179.265625 97.976562 179.46875 97.957031 179.65625 C 97.957031 179.757812 97.894531 179.902344 97.8125 179.984375 C 97.6875 180.109375 97.542969 180.046875 97.359375 179.839844 C 97.359375 180.171875 97.359375 180.480469 97.359375 180.808594 C 97.359375 181.386719 97.421875 182.046875 97.296875 182.621094 C 97.894531 183.382812 98.53125 184.0625 99.378906 184.578125 C 99.605469 184.703125 99.832031 184.847656 100.078125 184.949219 C 100.367188 185.074219 100.695312 185.21875 101.046875 185.300781 C 101.746094 185.507812 102.488281 185.566406 103.105469 185.238281 C 104.199219 184.683594 104.238281 183.507812 104.238281 182.4375 C 104.238281 182.375 104.28125 182.355469 104.34375 182.355469 C 104.382812 182.355469 104.425781 182.375 104.425781 182.417969 C 105.042969 184.496094 103.269531 186 101.335938 185.589844 C 99.273438 185.15625 97.070312 183.507812 96.390625 181.46875 C 96.371094 181.40625 96.453125 181.386719 96.472656 181.425781 C 96.679688 181.738281 96.886719 182.046875 97.089844 182.332031 C 97.089844 181.839844 97.152344 181.304688 97.195312 180.808594 C 97.195312 180.769531 97.195312 180.746094 97.195312 180.707031 C 97.214844 180.398438 97.214844 180.089844 97.234375 179.78125 C 96.945312 179.410156 96.371094 178.667969 95.710938 176.957031 Z M 138.910156 185.710938 L 131.617188 203.429688 L 131.574219 203.550781 L 130.917969 205.136719 L 130.917969 205.53125 C 130.917969 205.921875 130.609375 206.25 130.214844 206.269531 L 110.027344 208.207031 L 96.019531 208.125 L 95.710938 208.125 C 95.320312 208.125 95.011719 207.816406 95.011719 207.425781 L 95.011719 206.992188 L 104.507812 205.34375 C 103.972656 205.324219 103.476562 205.46875 102.941406 205.507812 C 102.878906 205.507812 102.796875 205.53125 102.734375 205.53125 C 102.671875 205.53125 102.652344 205.425781 102.714844 205.425781 C 103.703125 205.199219 104.445312 204.996094 105.433594 205.222656 C 106.09375 205.363281 106.730469 205.589844 107.390625 205.613281 C 108.089844 205.632812 108.628906 205.40625 109.285156 205.242188 C 109.429688 205.199219 109.511719 205.40625 109.390625 205.46875 C 109.246094 205.570312 109.101562 205.632812 108.9375 205.695312 C 109.863281 205.675781 110.5625 205.652344 110.871094 205.632812 L 111.367188 204.601562 C 111.121094 204.542969 110.871094 204.417969 110.625 204.335938 C 110.335938 204.230469 109.882812 204.046875 109.554688 204.128906 C 109.429688 204.171875 109.328125 203.964844 109.472656 203.902344 C 109.78125 203.738281 110.152344 203.820312 110.480469 203.902344 C 110.832031 203.984375 111.222656 204.109375 111.53125 204.273438 L 112.707031 201.84375 C 111.984375 201.554688 111.222656 201.328125 110.417969 201.265625 C 109.449219 201.183594 108.566406 201.367188 107.636719 201.511719 C 107.472656 201.535156 107.308594 201.554688 107.144531 201.574219 C 106.648438 201.617188 106.15625 201.59375 105.660156 201.554688 C 104.835938 201.472656 104.03125 201.265625 103.230469 201.019531 C 102.160156 200.710938 101.085938 200.359375 100.015625 200.050781 C 99.417969 199.863281 98.820312 199.699219 98.203125 199.535156 C 97.875 199.453125 97.542969 199.371094 97.214844 199.328125 C 95.546875 199.039062 93.878906 199.082031 92.148438 199.308594 C 92.105469 199.308594 92.085938 199.226562 92.125 199.226562 C 93.011719 199.039062 93.878906 198.917969 94.761719 198.898438 C 95.691406 198.875 96.617188 198.9375 97.566406 199.144531 C 99.4375 199.535156 101.292969 200.171875 103.125 200.730469 C 104.136719 201.039062 105.167969 201.308594 106.214844 201.367188 C 106.898438 201.390625 107.554688 201.265625 108.214844 201.140625 C 108.484375 201.101562 108.730469 201.058594 108.996094 201.019531 C 110.273438 200.894531 111.632812 201.058594 112.828125 201.59375 L 114.167969 198.792969 L 120 186.640625 C 120.101562 186.433594 120.285156 186.308594 120.511719 186.308594 L 138.578125 185.238281 C 138.847656 185.238281 139.011719 185.484375 138.910156 185.710938 Z M 125.085938 199.351562 C 126.714844 199.351562 128.566406 198.050781 129.226562 196.464844 C 129.886719 194.878906 129.105469 193.582031 127.476562 193.582031 C 125.847656 193.582031 123.996094 194.878906 123.335938 196.464844 C 122.675781 198.050781 123.460938 199.351562 125.085938 199.351562 Z M 102.40625 179.492188 C 102.40625 179.511719 102.40625 179.53125 102.40625 179.554688 C 102.425781 179.738281 102.507812 179.921875 102.632812 180.066406 C 102.757812 180.210938 102.960938 180.398438 103.1875 180.355469 C 103.269531 180.335938 103.3125 180.234375 103.269531 180.171875 C 103.230469 180.089844 103.148438 180.066406 103.085938 180.007812 C 103.023438 179.945312 102.960938 179.902344 102.898438 179.839844 C 102.898438 179.839844 102.878906 179.820312 102.878906 179.820312 C 102.777344 179.695312 102.695312 179.574219 102.632812 179.429688 C 102.570312 179.328125 102.40625 179.367188 102.40625 179.492188 Z M 99.378906 179.039062 C 99.355469 179.015625 99.316406 179.039062 99.335938 179.058594 C 99.480469 180.089844 100.511719 181.117188 101.335938 181.675781 C 102.261719 182.292969 103.394531 182.476562 104.464844 182.273438 C 104.753906 182.210938 105.042969 182.128906 105.308594 182.023438 C 105.660156 181.878906 105.988281 181.695312 106.300781 181.449219 C 106.339844 181.40625 106.320312 181.34375 106.300781 181.324219 C 106.277344 181.304688 106.257812 181.285156 106.214844 181.304688 C 105.640625 181.53125 105.105469 181.738281 104.546875 181.859375 C 103.4375 182.148438 102.363281 182.128906 101.230469 181.304688 C 100.429688 180.726562 99.789062 179.902344 99.378906 179.039062 Z M 94.433594 196.546875 C 94.453125 196.546875 94.472656 196.527344 94.496094 196.507812 C 94.515625 196.488281 94.535156 196.464844 94.558594 196.425781 C 94.558594 196.402344 94.558594 196.382812 94.558594 196.363281 C 94.929688 194.136719 94.90625 191.996094 94.535156 189.769531 C 94.515625 189.667969 94.371094 189.707031 94.390625 189.8125 C 94.617188 191.273438 94.660156 192.777344 94.535156 194.261719 C 94.472656 194.960938 94.390625 195.640625 94.269531 196.320312 C 93.15625 196.15625 92.003906 196.15625 90.871094 196.054688 C 89.449219 195.910156 88.046875 195.683594 86.667969 195.332031 C 86.625 195.3125 86.605469 195.351562 86.585938 195.375 C 86.585938 195.394531 86.585938 195.4375 86.625 195.457031 C 86.8125 195.519531 87.015625 195.578125 87.222656 195.640625 C 89.34375 196.257812 91.714844 196.546875 93.917969 196.527344 C 94.105469 196.546875 94.269531 196.546875 94.433594 196.546875 Z M 108.648438 198.585938 C 108.6875 198.585938 108.730469 198.585938 108.75 198.546875 C 108.996094 197.785156 109.101562 196.960938 109.164062 196.117188 C 109.222656 195.292969 109.222656 194.46875 109.222656 193.683594 C 109.554688 192.613281 109.71875 191.378906 109.863281 190.246094 C 109.863281 190.183594 109.78125 190.183594 109.761719 190.222656 C 109.574219 190.863281 109.390625 191.523438 109.246094 192.179688 C 109.285156 190.882812 109.285156 189.605469 109.121094 188.328125 C 109.121094 188.265625 108.996094 188.265625 108.996094 188.347656 C 109.082031 190.019531 109.039062 191.6875 108.996094 193.375 C 108.957031 195.105469 108.710938 196.796875 108.605469 198.527344 C 108.605469 198.566406 108.628906 198.585938 108.648438 198.585938 Z M 104.34375 175.226562 C 104.09375 175.226562 103.890625 175.433594 103.890625 175.679688 C 103.890625 175.925781 104.09375 176.132812 104.34375 176.132812 C 104.589844 176.132812 104.796875 175.925781 104.796875 175.679688 C 104.796875 175.433594 104.589844 175.226562 104.34375 175.226562 Z M 106.585938 175.78125 C 106.585938 176.03125 106.792969 176.234375 107.039062 176.234375 C 107.289062 176.234375 107.492188 176.03125 107.492188 175.78125 C 107.492188 175.535156 107.289062 175.328125 107.039062 175.328125 C 106.792969 175.328125 106.585938 175.535156 106.585938 175.78125 Z M 105.023438 174.527344 C 104.464844 173.96875 103.292969 174.136719 102.757812 174.609375 C 102.695312 174.671875 102.757812 174.792969 102.839844 174.753906 C 103.167969 174.609375 103.496094 174.484375 103.867188 174.484375 C 104.257812 174.484375 104.546875 174.648438 104.898438 174.734375 C 105.023438 174.753906 105.105469 174.609375 105.023438 174.527344 Z M 108.152344 175.269531 C 108.214844 175.328125 108.378906 175.289062 108.378906 175.1875 C 108.277344 174.382812 107.164062 174.113281 106.585938 174.589844 C 106.484375 174.671875 106.585938 174.816406 106.710938 174.792969 C 107 174.710938 107.308594 174.671875 107.597656 174.792969 C 107.84375 174.875 107.96875 175.082031 108.152344 175.269531 Z M 105.929688 177.226562 C 105.722656 177.308594 105.597656 177.535156 105.414062 177.65625 C 105.226562 177.78125 105.023438 177.824219 104.796875 177.800781 C 104.691406 177.78125 104.652344 177.925781 104.714844 177.988281 C 105.167969 178.398438 106.011719 177.945312 106.15625 177.410156 C 106.175781 177.265625 106.050781 177.183594 105.929688 177.226562 Z M 103.910156 178.359375 C 104.21875 178.441406 104.546875 178.480469 104.835938 178.585938 C 104.941406 178.625 104.941406 178.75 104.855469 178.789062 C 104.714844 179.410156 104.257812 180.027344 103.539062 179.839844 C 102.816406 179.65625 102.695312 178.707031 102.898438 178.089844 C 102.921875 178.007812 103.023438 177.988281 103.066406 178.027344 C 103.351562 178.132812 103.621094 178.277344 103.910156 178.359375 Z M 104.628906 178.832031 C 104.136719 178.832031 103.496094 178.605469 103.085938 178.296875 C 103.023438 178.769531 103.042969 179.492188 103.601562 179.613281 C 104.136719 179.738281 104.527344 179.285156 104.628906 178.832031 Z M 104.628906 178.832031 " fill-opacity="1" fill-rule="nonzero"/></g><path fill="#ffffff" d="M 118.597656 185.339844 C 118.640625 185.484375 118.453125 185.546875 118.371094 185.445312 C 118.101562 185.03125 117.855469 184.640625 117.503906 184.289062 C 117.363281 184.148438 117.113281 184.003906 117.011719 183.816406 C 116.683594 183.136719 117.257812 182.457031 116.351562 181.820312 C 115.796875 181.425781 114.703125 181.058594 115.382812 180.234375 C 115.445312 180.148438 115.570312 180.253906 115.527344 180.335938 C 115.136719 181.140625 116.496094 181.46875 116.886719 181.796875 C 117.136719 182.023438 117.257812 182.230469 117.320312 182.5625 C 117.445312 183.097656 116.886719 182.972656 117.363281 183.753906 C 117.464844 183.941406 117.773438 184.125 117.917969 184.289062 C 118.226562 184.578125 118.433594 184.929688 118.597656 185.339844 Z M 123.398438 181.796875 C 123.292969 181.53125 123.089844 181.34375 122.902344 181.140625 C 122.449219 180.6875 122.511719 180.832031 122.449219 179.984375 C 122.386719 179.160156 122.386719 179.183594 122.738281 178.585938 C 122.78125 178.503906 122.65625 178.398438 122.59375 178.480469 C 122.039062 179.203125 121.585938 180.046875 122.222656 180.851562 C 122.410156 181.097656 122.757812 181.261719 122.902344 181.53125 C 123.234375 182.128906 123.007812 182.929688 122.882812 183.527344 C 122.78125 183.980469 122.800781 184.332031 123.046875 184.722656 C 123.128906 184.867188 123.335938 184.746094 123.273438 184.601562 C 122.78125 183.652344 123.769531 182.746094 123.398438 181.796875 Z M 116.742188 188.429688 C 116.453125 188.617188 115.960938 188.265625 115.796875 188.0625 C 115.714844 187.957031 115.671875 187.894531 115.589844 187.792969 C 115.464844 187.648438 115.320312 187.546875 115.15625 187.464844 C 114.640625 187.238281 113.324219 187.421875 113.054688 186.84375 C 113.015625 186.761719 112.871094 186.824219 112.910156 186.90625 C 113.160156 187.710938 114.539062 187.421875 115.136719 187.773438 C 115.671875 188.082031 116.144531 189.234375 116.910156 188.617188 C 116.992188 188.535156 116.867188 188.371094 116.742188 188.429688 Z M 113.960938 185.011719 C 114.519531 185.363281 115.09375 185.773438 115.734375 185.9375 C 115.816406 185.960938 115.859375 185.855469 115.796875 185.792969 C 115.21875 185.464844 114.601562 185.238281 114.023438 184.910156 C 113.960938 184.867188 113.902344 184.972656 113.960938 185.011719 Z M 120.164062 182.003906 C 120 181.613281 119.8125 181.222656 119.667969 180.832031 C 119.628906 180.707031 119.421875 180.769531 119.484375 180.890625 C 119.710938 181.59375 119.9375 182.476562 120.429688 183.054688 C 120.492188 183.136719 120.597656 183.054688 120.597656 182.972656 C 120.492188 182.621094 120.308594 182.3125 120.164062 182.003906 Z M 125.558594 180.480469 C 125.5 180.664062 125.457031 180.832031 125.417969 181.015625 C 125.375 181.179688 125.3125 181.34375 125.3125 181.511719 C 125.3125 181.613281 125.476562 181.675781 125.539062 181.570312 C 125.621094 181.425781 125.644531 181.242188 125.683594 181.078125 C 125.726562 180.890625 125.765625 180.707031 125.808594 180.519531 C 125.808594 180.398438 125.601562 180.335938 125.558594 180.480469 Z M 88.746094 174.339844 C 88.644531 174.277344 88.542969 174.445312 88.644531 174.503906 C 89.386719 175 90.148438 175.640625 90.972656 175.925781 C 91.035156 175.949219 91.097656 175.867188 91.035156 175.804688 C 90.417969 175.207031 89.511719 174.792969 88.746094 174.339844 Z M 89.941406 172.445312 C 89.859375 172.34375 89.714844 172.488281 89.796875 172.589844 C 90.292969 173.1875 90.847656 173.824219 91.527344 174.238281 C 91.609375 174.277344 91.695312 174.175781 91.632812 174.113281 C 91.054688 173.539062 90.457031 173.042969 89.941406 172.445312 Z M 89.941406 172.445312 " fill-opacity="1" fill-rule="nonzero"/><g clip-path="url(#357446685f)"><path fill="#ffffff" d="M 110.046875 207.425781 L 130.9375 205.136719 L 130.9375 205.53125 C 130.9375 205.921875 130.628906 206.25 130.238281 206.269531 L 110.046875 208.207031 L 96.039062 208.125 L 95.730469 208.125 C 95.339844 208.125 95.03125 207.816406 95.03125 207.425781 L 95.03125 206.992188 L 104.527344 205.34375 C 104.609375 205.34375 104.691406 205.34375 104.773438 205.363281 C 105.414062 205.449219 106.03125 205.714844 106.671875 205.839844 C 107.453125 206.003906 108.257812 206.003906 108.976562 205.695312 C 109.902344 205.675781 110.605469 205.652344 110.914062 205.632812 Z M 92.515625 184.621094 C 92.207031 184.230469 91.816406 183.816406 91.34375 183.695312 C 91.300781 183.695312 91.28125 183.671875 91.242188 183.671875 C 92.539062 182.992188 93.917969 182.476562 95.382812 182.25 C 95.546875 182.230469 95.484375 181.984375 95.320312 182.003906 C 93.691406 182.273438 92.148438 182.890625 90.703125 183.671875 C 90.683594 183.695312 90.664062 183.714844 90.664062 183.734375 C 90.375 183.816406 90.128906 183.980469 89.878906 184.167969 C 89.757812 184.269531 89.878906 184.496094 90.003906 184.394531 C 90.417969 184.085938 90.910156 183.796875 91.425781 184.003906 C 91.878906 184.1875 92.230469 184.621094 92.496094 184.992188 C 93.074219 185.816406 93.402344 186.761719 93.671875 187.710938 C 93.710938 187.875 93.960938 187.792969 93.917969 187.648438 C 93.589844 186.578125 93.21875 185.507812 92.515625 184.621094 Z M 136.046875 186.246094 C 134.378906 186.351562 132.707031 186.472656 131.039062 186.578125 C 128.382812 186.742188 125.703125 186.929688 123.046875 187.09375 C 122.429688 187.132812 121.832031 187.175781 121.214844 187.214844 C 121.050781 187.238281 121.050781 187.484375 121.214844 187.464844 C 122.882812 187.359375 124.550781 187.238281 126.21875 187.132812 C 128.878906 186.96875 131.554688 186.785156 134.210938 186.617188 C 134.832031 186.578125 135.429688 186.535156 136.046875 186.496094 C 136.210938 186.496094 136.210938 186.226562 136.046875 186.246094 Z M 111.820312 206.394531 C 112.480469 205.078125 113.136719 203.738281 113.816406 202.417969 C 114.867188 200.316406 115.941406 198.195312 116.992188 196.09375 C 117.238281 195.621094 117.464844 195.125 117.710938 194.652344 C 117.792969 194.507812 117.566406 194.363281 117.484375 194.53125 C 116.824219 195.847656 116.167969 197.1875 115.488281 198.503906 C 114.890625 199.699219 114.292969 200.875 113.695312 202.070312 C 113.652344 202.128906 113.632812 202.214844 113.589844 202.273438 C 113.160156 203.121094 112.726562 203.984375 112.3125 204.828125 C 112.066406 205.304688 111.839844 205.796875 111.59375 206.269531 C 111.53125 206.414062 111.738281 206.539062 111.820312 206.394531 Z M 103.578125 195.847656 C 103.558594 195.476562 103.578125 195.105469 103.601562 194.757812 C 103.621094 194.074219 103.683594 193.394531 103.722656 192.714844 C 103.722656 192.695312 103.722656 192.695312 103.722656 192.695312 C 103.722656 192.675781 103.722656 192.675781 103.746094 192.65625 C 103.765625 192.613281 103.828125 192.574219 103.890625 192.59375 C 104.734375 192.800781 105.597656 192.839844 106.464844 192.839844 C 107.0625 192.839844 107.699219 192.839844 108.296875 192.695312 C 108.316406 192.695312 108.339844 192.695312 108.359375 192.695312 C 108.398438 192.695312 108.441406 192.714844 108.460938 192.777344 C 108.523438 193.148438 108.441406 193.582031 108.398438 193.953125 C 108.339844 194.46875 108.257812 194.984375 108.152344 195.496094 C 108.089844 195.785156 108.050781 196.074219 107.863281 196.320312 C 107.515625 196.773438 107.039062 197.144531 106.527344 197.371094 C 106.09375 197.558594 105.742188 197.558594 105.332031 197.351562 C 104.898438 197.144531 104.484375 196.878906 104.117188 196.589844 C 103.847656 196.382812 103.601562 196.15625 103.578125 195.847656 Z M 106.441406 193.085938 C 105.621094 193.085938 104.773438 193.046875 103.949219 192.859375 C 103.910156 193.519531 103.867188 194.160156 103.828125 194.816406 C 103.804688 195.148438 103.785156 195.496094 103.804688 195.828125 C 103.828125 196.117188 104.136719 196.320312 104.363281 196.488281 C 104.714844 196.753906 105.082031 197 105.476562 197.167969 C 105.929688 197.371094 106.382812 197.167969 106.773438 196.898438 C 107.101562 196.691406 107.535156 196.363281 107.699219 195.992188 C 107.824219 195.722656 107.84375 195.375 107.90625 195.066406 C 107.988281 194.632812 108.050781 194.179688 108.089844 193.726562 C 108.113281 193.480469 108.171875 193.210938 108.152344 192.964844 C 107.636719 193.085938 107.019531 193.085938 106.441406 193.085938 Z M 103.722656 166.265625 C 105.640625 166.84375 107.617188 167.542969 108.957031 169.109375 C 109.058594 169.230469 109.246094 169.046875 109.140625 168.921875 C 107.78125 167.316406 105.742188 166.59375 103.804688 165.996094 C 103.621094 165.976562 103.558594 166.222656 103.722656 166.265625 Z M 110.460938 171.230469 C 110.585938 171.539062 110.667969 171.847656 110.726562 172.179688 C 110.75 172.34375 111.015625 172.28125 110.976562 172.117188 C 110.933594 171.910156 110.894531 171.703125 110.832031 171.5 C 110.625 170.820312 110.273438 170.160156 109.820312 169.601562 C 109.71875 169.480469 109.535156 169.664062 109.636719 169.789062 C 109.988281 170.222656 110.273438 170.714844 110.460938 171.230469 Z M 110.460938 171.230469 " fill-opacity="1" fill-rule="nonzero"/></g><g fill="#ffffff" fill-opacity="1"><g transform="translate(161.417221, 175.845735)"><g><path d="M 15.964844 -17.042969 L 0.847656 -17.042969 L 0.847656 -13.96875 L 6.457031 -13.96875 L 6.457031 0 L 10.351562 0 L 10.351562 -13.96875 L 15.964844 -13.96875 Z M 15.964844 -17.042969 "/></g></g></g><g fill="#ffffff" fill-opacity="1"><g transform="translate(178.222136, 175.845735)"><g><path d="M 10.148438 0.4375 C 16.683594 0.4375 19.117188 -3.820312 19.117188 -8.507812 C 19.117188 -13.121094 16.683594 -17.476562 10.148438 -17.476562 C 3.613281 -17.476562 1.152344 -13.148438 1.152344 -8.507812 C 1.152344 -3.792969 3.613281 0.4375 10.148438 0.4375 Z M 5.226562 -8.507812 C 5.226562 -12.277344 6.40625 -14.300781 10.148438 -14.300781 C 13.890625 -14.300781 15.070312 -12.277344 15.070312 -8.507812 C 15.070312 -4.792969 13.890625 -2.769531 10.148438 -2.769531 C 6.40625 -2.769531 5.226562 -4.792969 5.226562 -8.507812 Z M 5.226562 -8.507812 "/></g></g></g><g fill="#ffffff" fill-opacity="1"><g transform="translate(198.485375, 175.845735)"><g><path d="M 14.25 -17.042969 L 14.25 -2.769531 C 13.96875 -3.640625 13.632812 -4.511719 13.328125 -5.226562 L 7.945312 -17.042969 L 1.488281 -17.042969 L 1.488281 0 L 5.226562 0 L 5.226562 -14.25 C 5.484375 -13.378906 5.816406 -12.507812 6.203125 -11.636719 L 11.53125 0 L 17.992188 0 L 17.992188 -17.042969 Z M 14.25 -17.042969 "/></g></g></g><g fill="#ffffff" fill-opacity="1"><g transform="translate(217.954475, 175.845735)"><g><path d="M 12.992188 -17.042969 L 10.175781 -11.121094 C 9.738281 -10.175781 9.328125 -9.25 8.917969 -8.304688 C 8.558594 -9.25 8.148438 -10.175781 7.738281 -11.121094 L 4.945312 -17.042969 L 0.589844 -17.042969 L 7.023438 -5.152344 L 7.023438 0 L 10.917969 0 L 10.917969 -5.152344 L 17.324219 -17.042969 Z M 12.992188 -17.042969 "/></g></g></g><g fill="#ffffff" fill-opacity="1"><g transform="translate(161.417221, 200.595733)"><g><path d="M 14.070312 -17.042969 L 10.277344 -5.867188 C 9.96875 -4.921875 9.710938 -3.996094 9.457031 -3.050781 C 9.226562 -3.996094 8.945312 -4.921875 8.636719 -5.867188 L 4.871094 -17.042969 L 0.847656 -17.042969 L 6.5625 0 L 12.277344 0 L 17.992188 -17.042969 Z M 14.070312 -17.042969 "/></g></g></g><g fill="#ffffff" fill-opacity="1"><g transform="translate(180.220275, 200.595733)"><g><path d="M 14.785156 0 L 18.707031 0 L 12.710938 -17.042969 L 6.765625 -17.042969 L 0.769531 0 L 4.691406 0 L 5.921875 -3.484375 L 13.558594 -3.484375 Z M 6.96875 -6.484375 L 9.738281 -14.351562 L 12.507812 -6.484375 Z M 6.96875 -6.484375 "/></g></g></g><g fill="#ffffff" fill-opacity="1"><g transform="translate(199.663763, 200.595733)"><g><path d="M 5.40625 -3.101562 L 5.40625 -17.042969 L 1.488281 -17.042969 L 1.488281 0 L 13.378906 0 L 13.378906 -3.101562 Z M 5.40625 -3.101562 "/></g></g></g><g fill="#ffffff" fill-opacity="1"><g transform="translate(213.522694, 200.595733)"><g><path d="M 14.070312 -17.042969 L 10.277344 -5.867188 C 9.96875 -4.921875 9.710938 -3.996094 9.457031 -3.050781 C 9.226562 -3.996094 8.945312 -4.921875 8.636719 -5.867188 L 4.871094 -17.042969 L 0.847656 -17.042969 L 6.5625 0 L 12.277344 0 L 17.992188 -17.042969 Z M 14.070312 -17.042969 "/></g></g></g><g fill="#ffffff" fill-opacity="1"><g transform="translate(232.325748, 200.595733)"><g><path d="M 5.382812 -3.101562 L 5.382812 -7.253906 L 14.09375 -7.253906 L 14.09375 -10.148438 L 5.382812 -10.148438 L 5.382812 -13.96875 L 14.863281 -13.96875 L 14.863281 -17.042969 L 1.488281 -17.042969 L 1.488281 0 L 14.941406 0 L 14.941406 -3.101562 Z M 5.382812 -3.101562 "/></g></g></g><g fill="#ffffff" fill-opacity="1"><g transform="translate(248.541464, 200.595733)"><g><path d="M 15.660156 -4.152344 C 15.660156 -6.613281 14.300781 -7.484375 12.558594 -7.917969 C 14.582031 -8.355469 16.121094 -9.96875 16.121094 -12.378906 C 16.121094 -15.144531 14.25 -17.042969 10.480469 -17.042969 L 1.488281 -17.042969 L 1.488281 0 L 5.40625 0 L 5.40625 -6.585938 L 8.917969 -6.585938 C 10.609375 -6.585938 11.761719 -5.765625 11.761719 -3.84375 L 11.761719 -2.945312 C 11.761719 -1.539062 11.890625 -0.613281 12.097656 0 L 15.992188 0 C 15.8125 -0.820312 15.660156 -1.589844 15.660156 -3 Z M 9.609375 -9.378906 L 5.40625 -9.378906 L 5.40625 -14.019531 L 9.609375 -14.019531 C 11.300781 -14.019531 12.046875 -13.25 12.046875 -11.8125 C 12.046875 -10.226562 11.378906 -9.378906 9.609375 -9.378906 Z M 9.609375 -9.378906 "/></g></g></g><g fill="#ffffff" fill-opacity="1"><g transform="translate(265.833096, 200.595733)"><g><path d="M 9.6875 -17.042969 L 1.488281 -17.042969 L 1.488281 0 L 9.6875 0 C 15.222656 0 17.734375 -4.050781 17.734375 -8.558594 C 17.734375 -13.042969 15.222656 -17.042969 9.6875 -17.042969 Z M 8.816406 -3.101562 L 5.382812 -3.101562 L 5.382812 -13.96875 L 8.816406 -13.96875 C 12.277344 -13.96875 13.683594 -12.199219 13.683594 -8.558594 C 13.683594 -4.945312 12.300781 -3.101562 8.816406 -3.101562 Z M 8.816406 -3.101562 "/></g></g></g><g fill="#ffffff" fill-opacity="1"><g transform="translate(284.53368, 200.595733)"><g><path d="M 5.382812 -3.101562 L 5.382812 -7.253906 L 14.09375 -7.253906 L 14.09375 -10.148438 L 5.382812 -10.148438 L 5.382812 -13.96875 L 14.863281 -13.96875 L 14.863281 -17.042969 L 1.488281 -17.042969 L 1.488281 0 L 14.941406 0 L 14.941406 -3.101562 Z M 5.382812 -3.101562 "/></g></g></g><g fill="#7ed957" fill-opacity="1"><g transform="translate(161.417221, 217.952682)"><g><path d="M 3.871094 0 C 6.335938 0 7.851562 -1.5625 7.851562 -4.15625 C 7.851562 -6.726562 6.335938 -8.289062 3.871094 -8.289062 L 0.78125 -8.289062 L 0.78125 0 Z M 2.675781 -6.632812 L 3.777344 -6.632812 C 5.105469 -6.632812 5.863281 -5.753906 5.863281 -4.144531 C 5.863281 -2.535156 5.105469 -1.65625 3.777344 -1.65625 L 2.675781 -1.65625 Z M 2.675781 -6.632812 "/></g></g></g><g fill="#7ed957" fill-opacity="1"><g transform="translate(170.949728, 217.952682)"><g><path d="M 2.652344 -3.554688 L 5.980469 -3.554688 L 5.980469 -5.082031 L 2.652344 -5.082031 L 2.652344 -6.679688 L 6.453125 -6.679688 L 6.453125 -8.289062 L 0.78125 -8.289062 L 0.78125 0 L 6.539062 0 L 6.539062 -1.609375 L 2.652344 -1.609375 Z M 2.652344 -3.554688 "/></g></g></g><g fill="#7ed957" fill-opacity="1"><g transform="translate(179.108645, 217.952682)"><g><path d="M 3.210938 0.164062 C 4.972656 0.164062 6.371094 -0.722656 6.371094 -2.332031 C 6.371094 -3.742188 5.363281 -4.441406 3.765625 -4.914062 C 2.84375 -5.234375 2.453125 -5.496094 2.453125 -6.003906 C 2.453125 -6.609375 2.925781 -6.773438 3.589844 -6.773438 C 4.238281 -6.773438 4.914062 -6.609375 5.730469 -6.253906 L 5.96875 -7.921875 C 5.1875 -8.265625 4.3125 -8.433594 3.46875 -8.433594 C 1.800781 -8.433594 0.4375 -7.578125 0.4375 -5.96875 C 0.4375 -4.605469 1.410156 -3.945312 2.972656 -3.480469 C 3.859375 -3.160156 4.359375 -2.914062 4.359375 -2.308594 C 4.359375 -1.683594 3.800781 -1.503906 3.078125 -1.503906 C 2.332031 -1.503906 1.253906 -1.730469 0.53125 -2.109375 L 0.355469 -0.449219 C 1.160156 -0.046875 2.15625 0.164062 3.210938 0.164062 Z M 3.210938 0.164062 "/></g></g></g><g fill="#7ed957" fill-opacity="1"><g transform="translate(186.94785, 217.952682)"><g><path d="M 8.019531 0 L 5.070312 -8.289062 L 3.03125 -8.289062 L 0.09375 0 L 2.0625 0 L 2.546875 -1.503906 L 5.542969 -1.503906 L 6.027344 0 Z M 4.050781 -6.085938 L 5.070312 -2.960938 L 3.019531 -2.960938 Z M 4.050781 -6.085938 "/></g></g></g><g fill="#7ed957" fill-opacity="1"><g transform="translate(196.243532, 217.952682)"><g><path d="M 7.199219 0 L 5.402344 -2.878906 C 6.464844 -3.292969 7.058594 -4.191406 7.058594 -5.4375 C 7.058594 -7.257812 5.816406 -8.289062 3.800781 -8.289062 L 0.78125 -8.289062 L 0.78125 0 L 2.675781 0 L 2.675781 -2.605469 L 3.457031 -2.605469 L 5.070312 0 Z M 3.753906 -6.679688 C 4.640625 -6.679688 5.164062 -6.242188 5.164062 -5.425781 C 5.164062 -4.546875 4.628906 -4.167969 3.742188 -4.167969 L 2.675781 -4.167969 L 2.675781 -6.679688 Z M 3.753906 -6.679688 "/></g></g></g><g fill="#7ed957" fill-opacity="1"><g transform="translate(204.840577, 217.952682)"><g><path d="M 7.199219 0 L 5.402344 -2.878906 C 6.464844 -3.292969 7.058594 -4.191406 7.058594 -5.4375 C 7.058594 -7.257812 5.816406 -8.289062 3.800781 -8.289062 L 0.78125 -8.289062 L 0.78125 0 L 2.675781 0 L 2.675781 -2.605469 L 3.457031 -2.605469 L 5.070312 0 Z M 3.753906 -6.679688 C 4.640625 -6.679688 5.164062 -6.242188 5.164062 -5.425781 C 5.164062 -4.546875 4.628906 -4.167969 3.742188 -4.167969 L 2.675781 -4.167969 L 2.675781 -6.679688 Z M 3.753906 -6.679688 "/></g></g></g><g fill="#7ed957" fill-opacity="1"><g transform="translate(213.437622, 217.952682)"><g><path d="M 4.273438 0.140625 C 6.550781 0.140625 8.066406 -1.503906 8.066406 -4.144531 C 8.066406 -6.808594 6.5625 -8.433594 4.289062 -8.433594 C 2.011719 -8.433594 0.507812 -6.785156 0.507812 -4.144531 C 0.507812 -1.480469 2.011719 0.140625 4.273438 0.140625 Z M 4.289062 -1.574219 C 3.113281 -1.574219 2.5 -2.59375 2.5 -4.144531 C 2.5 -5.839844 3.199219 -6.714844 4.289062 -6.714844 C 5.460938 -6.714844 6.074219 -5.695312 6.074219 -4.144531 C 6.074219 -2.453125 5.363281 -1.574219 4.289062 -1.574219 Z M 4.289062 -1.574219 "/></g></g></g><g fill="#7ed957" fill-opacity="1"><g transform="translate(223.195109, 217.952682)"><g><path d="M 6.085938 0 L 6.085938 -1.632812 L 2.699219 -1.632812 L 2.699219 -8.289062 L 0.78125 -8.289062 L 0.78125 0 Z M 6.085938 0 "/></g></g></g><g fill="#7ed957" fill-opacity="1"><g transform="translate(230.643557, 217.952682)"><g><path d="M 8.019531 0 L 5.070312 -8.289062 L 3.03125 -8.289062 L 0.09375 0 L 2.0625 0 L 2.546875 -1.503906 L 5.542969 -1.503906 L 6.027344 0 Z M 4.050781 -6.085938 L 5.070312 -2.960938 L 3.019531 -2.960938 Z M 4.050781 -6.085938 "/></g></g></g><g fill="#7ed957" fill-opacity="1"><g transform="translate(239.939243, 217.952682)"><g><path d="M 3.871094 0 C 6.335938 0 7.851562 -1.5625 7.851562 -4.15625 C 7.851562 -6.726562 6.335938 -8.289062 3.871094 -8.289062 L 0.78125 -8.289062 L 0.78125 0 Z M 2.675781 -6.632812 L 3.777344 -6.632812 C 5.105469 -6.632812 5.863281 -5.753906 5.863281 -4.144531 C 5.863281 -2.535156 5.105469 -1.65625 3.777344 -1.65625 L 2.675781 -1.65625 Z M 2.675781 -6.632812 "/></g></g></g><g fill="#7ed957" fill-opacity="1"><g transform="translate(249.471753, 217.952682)"><g><path d="M 4.273438 0.140625 C 6.550781 0.140625 8.066406 -1.503906 8.066406 -4.144531 C 8.066406 -6.808594 6.5625 -8.433594 4.289062 -8.433594 C 2.011719 -8.433594 0.507812 -6.785156 0.507812 -4.144531 C 0.507812 -1.480469 2.011719 0.140625 4.273438 0.140625 Z M 4.289062 -1.574219 C 3.113281 -1.574219 2.5 -2.59375 2.5 -4.144531 C 2.5 -5.839844 3.199219 -6.714844 4.289062 -6.714844 C 5.460938 -6.714844 6.074219 -5.695312 6.074219 -4.144531 C 6.074219 -2.453125 5.363281 -1.574219 4.289062 -1.574219 Z M 4.289062 -1.574219 "/></g></g></g><g fill="#7ed957" fill-opacity="1"><g transform="translate(259.229244, 217.952682)"><g><path d="M 7.199219 0 L 5.402344 -2.878906 C 6.464844 -3.292969 7.058594 -4.191406 7.058594 -5.4375 C 7.058594 -7.257812 5.816406 -8.289062 3.800781 -8.289062 L 0.78125 -8.289062 L 0.78125 0 L 2.675781 0 L 2.675781 -2.605469 L 3.457031 -2.605469 L 5.070312 0 Z M 3.753906 -6.679688 C 4.640625 -6.679688 5.164062 -6.242188 5.164062 -5.425781 C 5.164062 -4.546875 4.628906 -4.167969 3.742188 -4.167969 L 2.675781 -4.167969 L 2.675781 -6.679688 Z M 3.753906 -6.679688 "/></g></g></g><g fill="#7ed957" fill-opacity="1"><g transform="translate(267.826293, 217.952682)"><g/></g></g><g fill="#7ed957" fill-opacity="1"><g transform="translate(272.278896, 217.952682)"><g><path d="M 7.78125 -2.476562 L 6.382812 -8.289062 L 4.855469 -8.289062 L 3.46875 -2.476562 L 2.097656 -8.289062 L 0.09375 -8.289062 L 2.320312 0 L 4.335938 0 L 5.625 -4.925781 L 6.894531 0 L 8.90625 0 L 11.132812 -8.289062 L 9.15625 -8.289062 Z M 7.78125 -2.476562 "/></g></g></g><g fill="#7ed957" fill-opacity="1"><g transform="translate(284.688835, 217.952682)"><g><path d="M 2.652344 -3.554688 L 5.980469 -3.554688 L 5.980469 -5.082031 L 2.652344 -5.082031 L 2.652344 -6.679688 L 6.453125 -6.679688 L 6.453125 -8.289062 L 0.78125 -8.289062 L 0.78125 0 L 6.539062 0 L 6.539062 -1.609375 L 2.652344 -1.609375 Z M 2.652344 -3.554688 "/></g></g></g><g fill="#7ed957" fill-opacity="1"><g transform="translate(292.847755, 217.952682)"><g><path d="M 5.792969 -4.300781 C 6.539062 -4.605469 7.011719 -5.292969 7.011719 -6.171875 C 7.011719 -7.519531 5.980469 -8.289062 4.261719 -8.289062 L 0.78125 -8.289062 L 0.78125 0 L 4.371094 0 C 6.242188 0 7.308594 -0.851562 7.308594 -2.273438 C 7.308594 -3.292969 6.703125 -4.015625 5.792969 -4.300781 Z M 3.957031 -6.75 C 4.761719 -6.75 5.152344 -6.453125 5.152344 -5.816406 C 5.152344 -5.210938 4.773438 -4.890625 3.957031 -4.890625 L 2.640625 -4.890625 L 2.640625 -6.75 Z M 2.640625 -1.539062 L 2.640625 -3.46875 L 4.121094 -3.46875 C 4.984375 -3.46875 5.425781 -3.175781 5.425781 -2.511719 C 5.425781 -1.859375 5.035156 -1.539062 4.15625 -1.539062 Z M 2.640625 -1.539062 "/></g></g></g><g fill="#7ed957" fill-opacity="1"><g transform="translate(161.417221, 234.065587)"><g><path d="M 3.210938 0.164062 C 4.972656 0.164062 6.371094 -0.722656 6.371094 -2.332031 C 6.371094 -3.742188 5.363281 -4.441406 3.765625 -4.914062 C 2.84375 -5.234375 2.453125 -5.496094 2.453125 -6.003906 C 2.453125 -6.609375 2.925781 -6.773438 3.589844 -6.773438 C 4.238281 -6.773438 4.914062 -6.609375 5.730469 -6.253906 L 5.96875 -7.921875 C 5.1875 -8.265625 4.3125 -8.433594 3.46875 -8.433594 C 1.800781 -8.433594 0.4375 -7.578125 0.4375 -5.96875 C 0.4375 -4.605469 1.410156 -3.945312 2.972656 -3.480469 C 3.859375 -3.160156 4.359375 -2.914062 4.359375 -2.308594 C 4.359375 -1.683594 3.800781 -1.503906 3.078125 -1.503906 C 2.332031 -1.503906 1.253906 -1.730469 0.53125 -2.109375 L 0.355469 -0.449219 C 1.160156 -0.046875 2.15625 0.164062 3.210938 0.164062 Z M 3.210938 0.164062 "/></g></g></g><g fill="#7ed957" fill-opacity="1"><g transform="translate(169.256426, 234.065587)"><g><path d="M 4.273438 0.140625 C 6.550781 0.140625 8.066406 -1.503906 8.066406 -4.144531 C 8.066406 -6.808594 6.5625 -8.433594 4.289062 -8.433594 C 2.011719 -8.433594 0.507812 -6.785156 0.507812 -4.144531 C 0.507812 -1.480469 2.011719 0.140625 4.273438 0.140625 Z M 4.289062 -1.574219 C 3.113281 -1.574219 2.5 -2.59375 2.5 -4.144531 C 2.5 -5.839844 3.199219 -6.714844 4.289062 -6.714844 C 5.460938 -6.714844 6.074219 -5.695312 6.074219 -4.144531 C 6.074219 -2.453125 5.363281 -1.574219 4.289062 -1.574219 Z M 4.289062 -1.574219 "/></g></g></g><g fill="#7ed957" fill-opacity="1"><g transform="translate(179.013914, 234.065587)"><g><path d="M 3.71875 -8.289062 L 0.78125 -8.289062 L 0.78125 0 L 2.675781 0 L 2.675781 -2.308594 L 3.707031 -2.308594 C 5.753906 -2.308594 6.988281 -3.46875 6.988281 -5.316406 C 6.988281 -7.1875 5.730469 -8.289062 3.71875 -8.289062 Z M 2.675781 -3.933594 L 2.675781 -6.679688 L 3.671875 -6.679688 C 4.546875 -6.679688 5.082031 -6.207031 5.082031 -5.316406 C 5.082031 -4.382812 4.535156 -3.933594 3.660156 -3.933594 Z M 2.675781 -3.933594 "/></g></g></g><g fill="#7ed957" fill-opacity="1"><g transform="translate(187.468868, 234.065587)"><g><path d="M 4.273438 0.140625 C 6.550781 0.140625 8.066406 -1.503906 8.066406 -4.144531 C 8.066406 -6.808594 6.5625 -8.433594 4.289062 -8.433594 C 2.011719 -8.433594 0.507812 -6.785156 0.507812 -4.144531 C 0.507812 -1.480469 2.011719 0.140625 4.273438 0.140625 Z M 4.289062 -1.574219 C 3.113281 -1.574219 2.5 -2.59375 2.5 -4.144531 C 2.5 -5.839844 3.199219 -6.714844 4.289062 -6.714844 C 5.460938 -6.714844 6.074219 -5.695312 6.074219 -4.144531 C 6.074219 -2.453125 5.363281 -1.574219 4.289062 -1.574219 Z M 4.289062 -1.574219 "/></g></g></g><g fill="#7ed957" fill-opacity="1"><g transform="translate(197.226355, 234.065587)"><g><path d="M 7.199219 0 L 5.402344 -2.878906 C 6.464844 -3.292969 7.058594 -4.191406 7.058594 -5.4375 C 7.058594 -7.257812 5.816406 -8.289062 3.800781 -8.289062 L 0.78125 -8.289062 L 0.78125 0 L 2.675781 0 L 2.675781 -2.605469 L 3.457031 -2.605469 L 5.070312 0 Z M 3.753906 -6.679688 C 4.640625 -6.679688 5.164062 -6.242188 5.164062 -5.425781 C 5.164062 -4.546875 4.628906 -4.167969 3.742188 -4.167969 L 2.675781 -4.167969 L 2.675781 -6.679688 Z M 3.753906 -6.679688 "/></g></g></g><g fill="#7ed957" fill-opacity="1"><g transform="translate(205.823399, 234.065587)"><g><path d="M 0.238281 -8.289062 L 0.238281 -6.632812 L 2.34375 -6.632812 L 2.34375 0 L 4.25 0 L 4.25 -6.632812 L 6.371094 -6.632812 L 6.371094 -8.289062 Z M 0.238281 -8.289062 "/></g></g></g><g fill="#7ed957" fill-opacity="1"><g transform="translate(213.615241, 234.065587)"><g><path d="M 2.652344 -3.554688 L 5.980469 -3.554688 L 5.980469 -5.082031 L 2.652344 -5.082031 L 2.652344 -6.679688 L 6.453125 -6.679688 L 6.453125 -8.289062 L 0.78125 -8.289062 L 0.78125 0 L 6.539062 0 L 6.539062 -1.609375 L 2.652344 -1.609375 Z M 2.652344 -3.554688 "/></g></g></g><g fill="#7ed957" fill-opacity="1"><g transform="translate(221.774157, 234.065587)"><g/></g></g><g fill="#7ed957" fill-opacity="1"><g transform="translate(226.226756, 234.065587)"><g><path d="M 0.238281 -8.289062 L 0.238281 -6.632812 L 2.34375 -6.632812 L 2.34375 0 L 4.25 0 L 4.25 -6.632812 L 6.371094 -6.632812 L 6.371094 -8.289062 Z M 0.238281 -8.289062 "/></g></g></g><g fill="#7ed957" fill-opacity="1"><g transform="translate(234.018598, 234.065587)"><g><path d="M 2.6875 0 L 2.6875 -8.289062 L 0.78125 -8.289062 L 0.78125 0 Z M 2.6875 0 "/></g></g></g><g fill="#7ed957" fill-opacity="1"><g transform="translate(238.675243, 234.065587)"><g/></g></g></svg>